<!DOCTYPE svg PUBLIC "-//W3C//DTD SVG 20010904//EN" "http://www.w3.org/TR/2001/REC-SVG-20010904/DTD/svg10.dtd">
<svg version="1.0" xmlns="http://www.w3.org/2000/svg" width="868px" height="868px" viewBox="0 0 8680 8680" preserveAspectRatio="xMidYMid meet">
<g id="layer101" fill="#b5004b" stroke="none">
 <path d="M1430 8574 c0 -9 69 -87 153 -173 262 -267 463 -474 517 -531 29 -30 138 -143 244 -250 183 -187 736 -756 825 -850 24 -25 168 -173 320 -329 152 -156 303 -312 336 -346 58 -60 456 -469 811 -834 94 -97 221 -228 282 -291 l112 -115 -133 -129 c-72 -71 -202 -197 -287 -280 -85 -82 -234 -226 -330 -320 -97 -94 -226 -220 -288 -280 -62 -60 -112 -117 -112 -126 0 -16 590 -613 624 -632 6 -4 17 -3 24 1 6 4 101 94 210 201 108 107 317 312 463 455 1006 985 1080 1059 1077 1076 -2 10 -136 153 -298 319 -162 167 -335 343 -384 394 -287 295 -785 805 -997 1021 -135 137 -329 335 -430 440 -101 104 -286 293 -410 420 -125 126 -241 246 -257 266 -22 25 -60 48 -124 76 -51 23 -199 87 -328 143 -129 56 -248 107 -265 115 -16 7 -115 50 -220 94 -104 45 -199 86 -210 91 -106 50 -903 390 -913 390 -7 0 -12 -7 -12 -16z"/>
 <path d="M3155 4699 c-950 -951 -865 -865 -865 -876 1 -11 201 -217 763 -784 254 -256 761 -768 1127 -1138 1069 -1082 952 -970 1056 -1013 86 -36 224 -96 912 -397 178 -77 325 -141 327 -141 2 0 33 -13 68 -30 36 -16 67 -30 70 -30 3 0 45 -18 94 -41 109 -50 113 -52 193 -85 36 -14 93 -39 128 -55 61 -28 127 -39 120 -20 -1 6 -172 182 -379 393 -207 211 -388 397 -403 413 -15 17 -150 154 -299 306 -372 377 -1158 1177 -1248 1270 -41 42 -263 268 -494 503 -231 235 -471 480 -533 544 -63 64 -147 151 -188 192 l-74 76 550 549 c302 302 550 557 550 565 0 14 -608 631 -628 638 -4 1 -385 -376 -847 -839z"/>
 </g>
<g id="layer102" fill="#ec0062" stroke="none">
 <path d="M3271 4789 c-13 -17 -18 -30 -10 -27 7 2 17 13 23 24 6 10 16 22 21 26 7 5 6 8 -1 8 -5 0 -21 -14 -33 -31z"/>
 <path d="M3200 4720 c-18 -23 -30 -43 -27 -46 8 -8 47 38 41 48 -3 4 -1 8 4 8 6 0 12 7 16 15 9 24 0 17 -34 -25z"/>
 <path d="M4390 4685 c-13 -14 -19 -25 -14 -25 8 1 50 50 41 50 -2 0 -14 -11 -27 -25z"/>
 <path d="M4869 4673 c-12 -15 -12 -16 4 -10 9 3 17 2 17 -2 0 -5 8 -12 17 -15 16 -6 16 -6 0 12 -9 10 -14 22 -10 25 3 4 2 7 -4 7 -6 0 -17 -8 -24 -17z"/>
 <path d="M2733 4256 c-233 -232 -423 -427 -423 -433 0 -5 26 -38 58 -73 31 -35 57 -68 57 -74 1 -6 6 -10 11 -9 11 2 71 -55 76 -72 2 -5 6 -9 9 -8 4 1 17 -10 30 -25 l24 -27 -25 20 -25 20 19 -22 c10 -13 22 -20 26 -18 12 8 580 -577 573 -589 -3 -6 -2 -8 2 -3 11 10 86 -63 78 -76 -3 -6 -2 -7 4 -4 11 7 86 -66 78 -76 -3 -4 -2 -5 2 -2 10 8 83 -67 76 -78 -3 -6 -2 -7 4 -4 13 8 86 -67 76 -78 -5 -4 -3 -5 3 -2 13 7 640 -628 636 -644 -1 -6 1 -8 6 -5 12 7 84 -68 75 -79 -5 -4 -3 -5 3 -2 12 7 32 -10 33 -28 1 -5 5 -10 10 -10 13 0 26 -14 26 -28 1 -7 6 -11 12 -10 16 3 594 -587 587 -599 -4 -6 -2 -8 3 -5 13 8 36 -17 25 -27 -4 -4 0 -6 8 -4 8 2 14 -3 12 -10 -1 -8 1 -11 6 -8 12 7 64 -48 55 -58 -5 -4 -1 -6 7 -4 8 2 14 -3 12 -10 -1 -8 2 -11 7 -8 10 7 33 -18 26 -27 -3 -4 -2 -5 2 -2 9 7 34 -16 27 -26 -3 -5 0 -8 8 -7 7 2 12 -4 10 -12 -2 -8 0 -12 4 -7 10 9 65 -43 58 -55 -3 -5 -2 -8 3 -7 18 3 31 -2 53 -21 12 -11 26 -17 31 -14 10 6 109 -35 109 -46 0 -4 6 -7 13 -6 20 2 147 -56 141 -65 -3 -5 3 -10 13 -10 31 -2 37 -4 71 -18 17 -7 32 -18 32 -23 0 -5 4 -7 9 -4 12 8 132 -42 147 -60 6 -8 13 -11 16 -9 8 9 178 -67 172 -76 -5 -8 17 -14 38 -10 15 2 148 -62 148 -71 0 -5 4 -7 9 -4 12 8 131 -45 125 -55 -4 -8 16 -13 38 -10 11 1 143 -61 149 -71 3 -5 17 -11 30 -12 38 -5 109 -37 103 -47 -3 -5 3 -10 13 -10 45 -3 83 -17 83 -30 0 -6 4 -8 9 -4 14 8 81 -27 74 -38 -4 -6 0 -8 10 -4 22 8 69 -12 60 -26 -4 -6 0 -8 11 -4 18 7 50 -6 74 -30 8 -7 17 -11 22 -8 8 5 121 -41 130 -53 3 -4 12 -8 20 -8 8 -1 23 -5 34 -9 47 -20 -7 42 -269 307 -154 156 -399 405 -545 554 -146 148 -482 490 -746 759 -265 270 -517 526 -559 570 -89 92 -355 362 -1015 1033 -256 260 -464 475 -464 479 1 3 122 126 269 274 167 168 264 273 259 280 -4 8 -3 9 4 5 15 -9 56 29 47 44 -4 7 0 10 11 8 14 -2 18 2 16 16 -2 11 1 15 8 11 13 -8 56 33 45 43 -3 4 -11 -1 -16 -11 -6 -9 -15 -17 -21 -17 -6 0 -3 9 7 20 10 11 28 19 39 18 16 -2 20 2 18 18 -1 11 7 29 18 39 11 10 20 13 20 8 0 -6 -7 -16 -15 -23 -9 -7 -13 -15 -11 -17 2 -3 14 5 26 17 18 18 20 24 9 31 -8 5 -259 9 -559 10 -300 1 -562 2 -582 3 -20 2 -35 -1 -32 -6 3 -4 0 -17 -6 -28 -8 -16 -8 -25 0 -35 10 -12 7 -12 -13 -2 l-24 11 19 37 c10 20 29 41 42 47 13 5 33 29 44 51 12 23 21 41 19 41 -1 -1 -192 -191 -424 -424z"/>
 <path d="M4285 4613 c4 -35 11 -37 35 -13 12 12 20 24 17 26 -2 2 -10 -2 -17 -11 -7 -8 -17 -15 -23 -15 -5 0 -2 9 8 19 16 19 16 20 -3 18 -14 -1 -19 -7 -17 -24z"/>
 <path d="M5973 4634 c-7 -3 -13 -21 -13 -40 0 -36 -4 -38 -90 -36 -14 0 -259 0 -544 1 l-519 1 18 20 c14 16 16 23 7 32 -10 10 -17 7 -34 -10 -12 -12 -17 -22 -10 -22 6 0 12 4 12 9 0 5 8 12 17 15 13 5 11 0 -7 -18 -13 -15 -28 -25 -34 -24 -13 3 -76 -42 -76 -54 0 -5 5 -6 10 -3 6 3 10 1 10 -5 0 -7 -7 -9 -16 -6 -22 8 -44 -11 -37 -31 4 -11 3 -14 -6 -9 -15 10 -43 -13 -37 -30 3 -8 0 -11 -8 -8 -7 3 -19 -3 -27 -12 -11 -13 -11 -18 -1 -21 6 -3 12 -9 12 -15 0 -6 -6 -6 -15 2 -11 9 -19 8 -39 -7 -14 -10 -24 -25 -23 -33 1 -8 -4 -14 -11 -12 -11 2 -59 -41 -271 -248 -25 -25 -113 -110 -196 -190 -82 -80 -153 -155 -157 -168 -3 -12 -3 -20 2 -17 11 7 31 -20 22 -30 -4 -5 -2 -5 4 -2 14 8 37 -17 26 -28 -4 -5 -2 -5 5 -2 7 4 121 -102 285 -263 150 -148 278 -270 283 -270 11 0 139 124 812 788 265 261 480 479 477 484 -3 5 -1 7 3 6 9 -3 83 57 83 67 0 12 -40 4 -55 -12 -16 -15 -17 -15 -13 7 3 25 42 36 64 19 14 -11 159 134 159 159 0 17 -46 27 -72 16z m67 -19 c0 -8 -9 -15 -20 -15 -13 0 -20 -7 -20 -19 0 -21 -23 -45 -33 -34 -4 3 -7 1 -7 -5 0 -6 -10 -12 -22 -14 -17 -2 -24 -11 -26 -30 -5 -43 -24 -33 -20 10 3 34 6 37 38 42 28 4 36 10 38 30 5 43 11 50 42 50 20 0 30 -5 30 -15z m-1290 -90 c-7 -9 -15 -13 -18 -10 -3 2 1 11 8 20 7 9 15 13 18 10 3 -2 -1 -11 -8 -20z"/>
 </g>

</svg>